<svg width="50" height="50" viewBox="0 0 50 50" fill="none" xmlns="http://www.w3.org/2000/svg">
<g clip-path="url(#clip0_1_2074)">
<path d="M42.1875 28.125C42.6107 28.125 42.9769 28.2796 43.2861 28.5889C43.5954 28.8981 43.75 29.2643 43.75 29.6875C43.75 30.1107 43.5954 30.4769 43.2861 30.7861C42.9769 31.0954 42.6107 31.25 42.1875 31.25C41.7643 31.25 41.3981 31.0954 41.0889 30.7861C40.7796 30.4769 40.625 30.1107 40.625 29.6875C40.625 29.2643 40.7796 28.8981 41.0889 28.5889C41.3981 28.2796 41.7643 28.125 42.1875 28.125ZM27.4658 27.6611C26.18 26.7822 24.7965 26.123 23.3154 25.6836C21.8343 25.2441 20.3125 25.0163 18.75 25C17.3177 25 15.9342 25.1872 14.5996 25.5615C13.265 25.9359 12.0199 26.4567 10.8643 27.124C9.70866 27.7913 8.65885 28.6051 7.71484 29.5654C6.77083 30.5257 5.95703 31.5837 5.27344 32.7393C4.58984 33.8949 4.06087 35.14 3.68652 36.4746C3.31217 37.8092 3.125 39.1927 3.125 40.625H0C0 38.7207 0.284831 36.8571 0.854492 35.0342C1.42415 33.2113 2.24609 31.5267 3.32031 29.9805C4.39453 28.4342 5.6722 27.0589 7.15332 25.8545C8.63444 24.6501 10.2865 23.7305 12.1094 23.0957C11.1979 22.5098 10.3841 21.8343 9.66797 21.0693C8.95182 20.3044 8.33333 19.4661 7.8125 18.5547C7.29167 17.6432 6.90918 16.6829 6.66504 15.6738C6.4209 14.6647 6.28255 13.6068 6.25 12.5C6.25 10.7747 6.57552 9.15527 7.22656 7.6416C7.8776 6.12793 8.76465 4.80143 9.8877 3.66211C11.0107 2.52279 12.3372 1.6276 13.8672 0.976562C15.3971 0.325521 17.0247 0 18.75 0C20.4753 0 22.0947 0.325521 23.6084 0.976562C25.1221 1.6276 26.4486 2.51465 27.5879 3.6377C28.7272 4.76074 29.6224 6.08724 30.2734 7.61719C30.9245 9.14714 31.25 10.7747 31.25 12.5C31.25 13.5905 31.1198 14.6403 30.8594 15.6494C30.599 16.6585 30.2083 17.627 29.6875 18.5547C29.1667 19.4824 28.5563 20.3206 27.8564 21.0693C27.1566 21.818 26.3346 22.4935 25.3906 23.0957C26.709 23.5677 27.9785 24.2188 29.1992 25.0488L27.4658 27.6611ZM9.375 12.5C9.375 13.8021 9.61914 15.0146 10.1074 16.1377C10.5957 17.2607 11.263 18.2536 12.1094 19.1162C12.9557 19.9788 13.9486 20.6543 15.0879 21.1426C16.2272 21.6309 17.4479 21.875 18.75 21.875C20.0358 21.875 21.2484 21.6309 22.3877 21.1426C23.527 20.6543 24.5199 19.987 25.3662 19.1406C26.2126 18.2943 26.888 17.3014 27.3926 16.1621C27.8971 15.0228 28.1413 13.8021 28.125 12.5C28.125 11.2142 27.8809 10.0016 27.3926 8.8623C26.9043 7.72298 26.237 6.73014 25.3906 5.88379C24.5443 5.03744 23.5433 4.36198 22.3877 3.85742C21.2321 3.35286 20.0195 3.10872 18.75 3.125C17.4479 3.125 16.2354 3.36914 15.1123 3.85742C13.9893 4.3457 12.9964 5.01302 12.1338 5.85938C11.2712 6.70573 10.5957 7.70671 10.1074 8.8623C9.61914 10.0179 9.375 11.2305 9.375 12.5ZM40.625 21.875C41.9108 21.875 43.1234 22.1191 44.2627 22.6074C45.402 23.0957 46.3949 23.763 47.2412 24.6094C48.0876 25.4557 48.763 26.4567 49.2676 27.6123C49.7721 28.7679 50.0163 29.9805 50 31.25C50 32.5521 49.7559 33.7646 49.2676 34.8877C48.7793 36.0107 48.112 37.0036 47.2656 37.8662C46.4193 38.7288 45.4183 39.4043 44.2627 39.8926C43.1071 40.3809 41.8945 40.625 40.625 40.625C39.5671 40.625 38.5254 40.4378 37.5 40.0635V43.75H34.375V46.875H31.25V50H21.875V43.1152L31.5186 33.4473C31.3395 32.6986 31.25 31.9661 31.25 31.25C31.25 29.9642 31.4941 28.7516 31.9824 27.6123C32.4707 26.473 33.138 25.4801 33.9844 24.6338C34.8307 23.7874 35.8236 23.112 36.9629 22.6074C38.1022 22.1029 39.3229 21.8587 40.625 21.875ZM40.625 37.5C41.4876 37.5 42.2933 37.3372 43.042 37.0117C43.7907 36.6862 44.458 36.2386 45.0439 35.6689C45.6299 35.0993 46.0775 34.4401 46.3867 33.6914C46.696 32.9427 46.8587 32.1289 46.875 31.25C46.875 30.3874 46.7122 29.5817 46.3867 28.833C46.0612 28.0843 45.6136 27.417 45.0439 26.8311C44.4743 26.2451 43.8151 25.7975 43.0664 25.4883C42.3177 25.179 41.5039 25.0163 40.625 25C39.7624 25 38.9567 25.1628 38.208 25.4883C37.4593 25.8138 36.792 26.2614 36.2061 26.8311C35.6201 27.4007 35.1725 28.0599 34.8633 28.8086C34.554 29.5573 34.3913 30.3711 34.375 31.25C34.375 31.8197 34.4482 32.3405 34.5947 32.8125C34.7412 33.2845 34.9121 33.7809 35.1074 34.3018L25 44.3848V46.875H28.125V43.75H31.25V40.625H34.375V38.4033L36.6455 36.1572C37.2966 36.5316 37.9232 36.849 38.5254 37.1094C39.1276 37.3698 39.8275 37.5 40.625 37.5Z" fill="url(#paint0_linear_1_2074)"/>
</g>
<defs>
<linearGradient id="paint0_linear_1_2074" x1="25.0004" y1="0" x2="25.0004" y2="50" gradientUnits="userSpaceOnUse">
<stop stop-color="#52489F"/>
<stop offset="1" stop-color="#15141E"/>
</linearGradient>
<clipPath id="clip0_1_2074">
<rect width="50" height="50" fill="white"/>
</clipPath>
</defs>
</svg>
