<svg width="71" height="102" viewBox="0 0 71 102" fill="none" xmlns="http://www.w3.org/2000/svg">
<path d="M70.46 102H0.6V87.3L25.66 61.96C30.7 56.7333 34.76 52.3933 37.84 48.94C40.92 45.3933 43.16 42.22 44.56 39.42C45.96 36.5267 46.66 33.4467 46.66 30.18C46.66 26.1667 45.54 23.18 43.3 21.22C41.1533 19.26 38.2133 18.28 34.48 18.28C30.6533 18.28 26.92 19.1667 23.28 20.94C19.64 22.7133 15.8133 25.2333 11.8 28.5L0.32 14.92C3.21333 12.4 6.24667 10.0667 9.42 7.91999C12.6867 5.77333 16.42 4.04666 20.62 2.73999C24.9133 1.33999 30.0467 0.639995 36.02 0.639995C42.5533 0.639995 48.1533 1.85333 52.82 4.28C57.58 6.61333 61.22 9.83333 63.74 13.94C66.3533 17.9533 67.66 22.5267 67.66 27.66C67.66 31.86 67.0067 35.7333 65.7 39.28C64.4867 42.8267 62.6667 46.28 60.24 49.64C57.9067 52.9067 55.0133 56.3133 51.56 59.86C48.1067 63.3133 44.1867 67.0933 39.8 71.2L26.92 83.24V84.22H70.46V102Z" fill="url(#paint0_linear_1_2063)"/>
<defs>
<linearGradient id="paint0_linear_1_2063" x1="36" y1="3" x2="35.5" y2="77" gradientUnits="userSpaceOnUse">
<stop stop-color="#52489F"/>
<stop offset="1" stop-color="#15141E"/>
</linearGradient>
</defs>
</svg>
