<svg width="50" height="50" viewBox="0 0 50 50" fill="none" xmlns="http://www.w3.org/2000/svg">
<path d="M28.1982 46.875L31.3232 50H6.25V6.25H18.75C18.75 5.38737 18.9128 4.58171 19.2383 3.83301C19.5638 3.08431 20.0114 2.41699 20.5811 1.83105C21.1507 1.24512 21.8099 0.797526 22.5586 0.488281C23.3073 0.179036 24.1211 0.016276 25 0C25.8626 0 26.6683 0.16276 27.417 0.488281C28.1657 0.813802 28.833 1.26139 29.4189 1.83105C30.0049 2.40072 30.4525 3.0599 30.7617 3.80859C31.071 4.55729 31.2337 5.37109 31.25 6.25H43.75V31.3232L40.625 34.4482V9.375H37.5V15.625H12.5V9.375H9.375V46.875H28.1982ZM15.625 9.375V12.5H34.375V9.375H28.125V6.25C28.125 5.81055 28.0436 5.40365 27.8809 5.0293C27.7181 4.65495 27.4984 4.32943 27.2217 4.05273C26.945 3.77604 26.6113 3.54818 26.2207 3.36914C25.8301 3.1901 25.4232 3.10872 25 3.125C24.5605 3.125 24.1536 3.20638 23.7793 3.36914C23.4049 3.5319 23.0794 3.75163 22.8027 4.02832C22.526 4.30501 22.2982 4.63867 22.1191 5.0293C21.9401 5.41992 21.8587 5.82682 21.875 6.25V9.375H15.625ZM49.5361 35.4736L35.9375 49.0967L29.3701 42.5049L31.5674 40.3076L35.9375 44.6533L47.3389 33.2764L49.5361 35.4736Z" fill="url(#paint0_linear_1_2076)"/>
<defs>
<linearGradient id="paint0_linear_1_2076" x1="27.8931" y1="0" x2="27.8931" y2="50" gradientUnits="userSpaceOnUse">
<stop stop-color="#52489F"/>
<stop offset="1" stop-color="#15141E"/>
</linearGradient>
</defs>
</svg>
