<svg width="70" height="104" viewBox="0 0 70 104" fill="none" xmlns="http://www.w3.org/2000/svg">
<path d="M66.54 24.44C66.54 29.0133 65.56 32.98 63.6 36.34C61.7333 39.7 59.1667 42.4533 55.9 44.6C52.7267 46.7467 49.0867 48.3333 44.98 49.36V49.78C53.0067 50.7133 59.0733 53.14 63.18 57.06C67.38 60.98 69.48 66.2533 69.48 72.88C69.48 78.6667 68.0333 83.8933 65.14 88.56C62.34 93.1333 57.9533 96.7733 51.98 99.48C46.1 102.093 38.4933 103.4 29.16 103.4C23.6533 103.4 18.52 102.933 13.76 102C9 101.067 4.52 99.7133 0.32 97.94V80.02C4.61333 82.1667 9.09333 83.8 13.76 84.92C18.52 86.04 22.9067 86.6 26.92 86.6C34.48 86.6 39.7533 85.2933 42.74 82.68C45.82 80.0667 47.36 76.38 47.36 71.62C47.36 68.82 46.66 66.4867 45.26 64.62C43.86 62.66 41.3867 61.2133 37.84 60.28C34.3867 59.2533 29.5333 58.74 23.28 58.74H15.72V42.5H23.42C29.58 42.5 34.2467 41.94 37.42 40.82C40.6867 39.6067 42.88 38.02 44 36.06C45.2133 34.0067 45.82 31.6733 45.82 29.06C45.82 25.5133 44.7 22.76 42.46 20.8C40.3133 18.7467 36.6733 17.72 31.54 17.72C28.3667 17.72 25.4733 18.14 22.86 18.98C20.2467 19.7267 17.8667 20.66 15.72 21.78C13.6667 22.9 11.8467 23.9733 10.26 25L0.46 10.44C3.07333 8.57333 5.96667 6.89333 9.14 5.39999C12.4067 3.90666 16 2.74 19.92 1.9C23.84 1.06 28.2267 0.639995 33.08 0.639995C43.3467 0.639995 51.4667 2.74 57.44 6.94C63.5067 11.0467 66.54 16.88 66.54 24.44Z" fill="url(#paint0_linear_1_2064)"/>
<defs>
<linearGradient id="paint0_linear_1_2064" x1="36" y1="3" x2="35.5" y2="77" gradientUnits="userSpaceOnUse">
<stop stop-color="#52489F"/>
<stop offset="1" stop-color="#15141E"/>
</linearGradient>
</defs>
</svg>
