<svg width="50" height="50" viewBox="0 0 50 50" fill="none" xmlns="http://www.w3.org/2000/svg">
<path d="M8.33342 5.20831C8.05715 5.20831 7.7922 5.31806 7.59685 5.51341C7.4015 5.70876 7.29175 5.97371 7.29175 6.24998V43.75C7.29175 44.0262 7.4015 44.2912 7.59685 44.4865C7.7922 44.6819 8.05715 44.7916 8.33342 44.7916H20.8334C21.2478 44.7916 21.6452 44.9563 21.9383 45.2493C22.2313 45.5423 22.3959 45.9397 22.3959 46.3541C22.3959 46.7685 22.2313 47.166 21.9383 47.459C21.6452 47.752 21.2478 47.9166 20.8334 47.9166H8.33342C7.22835 47.9166 6.16854 47.4777 5.38714 46.6963C4.60573 45.9149 4.16675 44.855 4.16675 43.75V6.24998C4.16675 5.14491 4.60573 4.0851 5.38714 3.3037C6.16854 2.5223 7.22835 2.08331 8.33342 2.08331H31.2126C32.3176 2.08355 33.3772 2.52269 34.1584 3.30415L34.2917 3.43748L34.3126 3.45415L34.9584 4.10415C35.2344 4.40034 35.3847 4.79211 35.3775 5.1969C35.3704 5.6017 35.2064 5.98791 34.9201 6.27419C34.6339 6.56047 34.2476 6.72445 33.8428 6.73159C33.438 6.73874 33.0463 6.58848 32.7501 6.31248L32.5876 6.14998L32.5792 6.14373L32.3855 5.94998L31.948 5.51248C31.7528 5.31775 31.4883 5.20837 31.2126 5.20831H8.33342Z" fill="url(#paint0_linear_1_2078)"/>
<path d="M44.3401 30.9707L47.3713 47.6374C47.4207 47.9093 47.3971 48.1895 47.3029 48.4493C47.2086 48.7091 47.0472 48.9393 46.835 49.1163C46.6227 49.2934 46.3674 49.411 46.0949 49.4572C45.8224 49.5033 45.5425 49.4763 45.2838 49.379L38.4171 46.7957C37.8262 46.5735 37.1747 46.5735 36.5838 46.7957L29.7171 49.379C29.4585 49.4763 29.1786 49.5033 28.9061 49.4572C28.6336 49.411 28.3782 49.2934 28.166 49.1163C27.9538 48.9393 27.7923 48.7091 27.6981 48.4493C27.6039 48.1895 27.5803 47.9093 27.6296 47.6374L30.6609 30.9707L33.7338 31.529L31.1984 45.4832L35.4817 43.8707C36.783 43.3808 38.218 43.3808 39.5192 43.8707L43.8026 45.4832L41.2671 31.529L44.3401 30.9707Z" fill="url(#paint1_linear_1_2078)"/>
<path d="M37.4999 13.0208C35.1516 13.0208 32.8996 13.9537 31.2391 15.6141C29.5786 17.2746 28.6458 19.5267 28.6458 21.875C28.6458 24.2233 29.5786 26.4753 31.2391 28.1358C32.8996 29.7963 35.1516 30.7291 37.4999 30.7291C39.8482 30.7291 42.1003 29.7963 43.7608 28.1358C45.4212 26.4753 46.3541 24.2233 46.3541 21.875C46.3541 19.5267 45.4212 17.2746 43.7608 15.6141C42.1003 13.9537 39.8482 13.0208 37.4999 13.0208ZM25.5208 21.875C25.5208 20.3019 25.8306 18.7441 26.4326 17.2908C27.0346 15.8374 27.917 14.5168 29.0294 13.4044C30.1417 12.2921 31.4623 11.4097 32.9157 10.8077C34.3691 10.2057 35.9268 9.89581 37.4999 9.89581C39.073 9.89581 40.6308 10.2057 42.0841 10.8077C43.5375 11.4097 44.8581 12.2921 45.9705 13.4044C47.0828 14.5168 47.9652 15.8374 48.5672 17.2908C49.1692 18.7441 49.4791 20.3019 49.4791 21.875C49.4791 25.0521 48.217 28.099 45.9705 30.3455C43.7239 32.5921 40.677 33.8541 37.4999 33.8541C34.3228 33.8541 31.2759 32.5921 29.0294 30.3455C26.7828 28.099 25.5208 25.0521 25.5208 21.875Z" fill="#413A7B"/>
<defs>
<linearGradient id="paint0_linear_1_2078" x1="19.7723" y1="2.08331" x2="19.7723" y2="47.9166" gradientUnits="userSpaceOnUse">
<stop stop-color="#52489F"/>
<stop offset="1" stop-color="#15141E"/>
</linearGradient>
<linearGradient id="paint1_linear_1_2078" x1="37.5005" y1="30.9707" x2="37.5005" y2="49.4791" gradientUnits="userSpaceOnUse">
<stop stop-color="#52489F"/>
<stop offset="1" stop-color="#15141E"/>
</linearGradient>
</defs>
</svg>
