<svg width="50" height="50" viewBox="0 0 50 50" fill="none" xmlns="http://www.w3.org/2000/svg">
<g clip-path="url(#clip0_1_2082)">
<path d="M37.195 0.704989L38.065 3.38249C38.3351 4.19715 38.792 4.93731 39.3993 5.54375C40.0066 6.1502 40.7475 6.6061 41.5625 6.87499L44.24 7.74499L44.2925 7.75999C44.499 7.83268 44.6779 7.96768 44.8044 8.14635C44.9309 8.32502 44.9989 8.53856 44.9989 8.75749C44.9989 8.97642 44.9309 9.18995 44.8044 9.36862C44.6779 9.54729 44.499 9.68229 44.2925 9.75499L41.615 10.625C40.8 10.8939 40.0591 11.3498 39.4518 11.9562C38.8445 12.5627 38.3876 13.3028 38.1175 14.1175L37.2475 16.7925C37.1748 16.999 37.0398 17.1779 36.8611 17.3044C36.6825 17.4309 36.4689 17.4988 36.25 17.4988C36.0311 17.4988 35.8175 17.4309 35.6389 17.3044C35.4602 17.1779 35.3252 16.999 35.2525 16.7925L34.38 14.1175C34.1121 13.301 33.6566 12.5587 33.05 11.95C32.4431 11.3401 31.7015 10.8812 30.885 10.61L28.2075 9.73999C28.001 9.66729 27.8221 9.5323 27.6956 9.35362C27.5691 9.17495 27.5011 8.96142 27.5011 8.74249C27.5011 8.52356 27.5691 8.31002 27.6956 8.13135C27.8221 7.95268 28.001 7.81768 28.2075 7.74499L30.885 6.87499C31.6899 6.59882 32.4197 6.13967 33.017 5.53365C33.6144 4.92762 34.063 4.19126 34.3275 3.38249L35.1975 0.707489C35.2697 0.500111 35.4046 0.32034 35.5836 0.193124C35.7625 0.065909 35.9767 -0.00244141 36.1963 -0.00244141C36.4158 -0.00244141 36.63 0.065909 36.8089 0.193124C36.9879 0.32034 37.1228 0.497611 37.195 0.704989ZM49.4575 20.535L47.5425 19.915C46.9614 19.7207 46.4335 19.3939 46.0005 18.9605C45.5674 18.527 45.2412 17.9988 45.0475 17.4175L44.4225 15.5075C44.3707 15.3598 44.2744 15.2319 44.1467 15.1414C44.0191 15.0508 43.8665 15.0022 43.71 15.0022C43.5535 15.0022 43.4009 15.0508 43.2733 15.1414C43.1456 15.2319 43.0493 15.3598 42.9975 15.5075L42.3775 17.4175C42.1873 17.995 41.8664 18.5209 41.4397 18.9541C41.013 19.3873 40.4921 19.7161 39.9175 19.915L38.005 20.535C37.8585 20.5879 37.7318 20.6847 37.6423 20.8122C37.5527 20.9397 37.5047 21.0917 37.5047 21.2475C37.5047 21.4033 37.5527 21.5553 37.6423 21.6828C37.7318 21.8103 37.8585 21.9071 38.005 21.96L39.9175 22.5825C40.5003 22.7768 41.0298 23.1045 41.4637 23.5393C41.8977 23.9742 42.2243 24.5043 42.4175 25.0875L43.0375 26.9975C43.0893 27.1452 43.1856 27.2731 43.3133 27.3636C43.4409 27.4541 43.5935 27.5028 43.75 27.5028C43.9065 27.5028 44.0591 27.4541 44.1867 27.3636C44.3144 27.2731 44.4107 27.1452 44.4625 26.9975L45.085 25.0875C45.2789 24.5059 45.6056 23.9775 46.0391 23.544C46.4725 23.1106 47.001 22.7839 47.5825 22.59L49.495 21.97C49.6415 21.9171 49.7682 21.8203 49.8577 21.6928C49.9473 21.5653 49.9953 21.4133 49.9953 21.2575C49.9953 21.1017 49.9473 20.9497 49.8577 20.8222C49.7682 20.6947 49.6415 20.5979 49.495 20.545L49.4575 20.535ZM39.6875 25.32C39.8375 25.445 39.93 25.6075 40 25.7725V36.25C40.0003 36.4142 39.9682 36.577 39.9056 36.7288C39.8429 36.8807 39.751 37.0187 39.635 37.135L39.63 37.1375L39.625 37.1425L39.6075 37.16L39.55 37.215L39.35 37.4C39.1059 37.6148 38.855 37.8215 38.5975 38.02C37.7002 38.7105 36.746 39.3235 35.745 39.8525C32.4358 41.6059 28.745 42.5153 25 42.5C21.255 42.5153 17.5642 41.6059 14.255 39.8525C13.2549 39.3234 12.3015 38.7103 11.405 38.02C11.0756 37.765 10.757 37.4965 10.45 37.215C10.3123 37.094 10.2013 36.9458 10.1238 36.7797C10.0463 36.6136 10.0042 36.4332 10 36.25V25.03L5 22.16V33.75C5 34.0815 4.8683 34.3995 4.63388 34.6339C4.39946 34.8683 4.08152 35 3.75 35C3.41848 35 3.10054 34.8683 2.86612 34.6339C2.6317 34.3995 2.5 34.0815 2.5 33.75V20C2.49984 19.7755 2.5601 19.5552 2.67448 19.3621C2.78885 19.169 2.95311 19.0102 3.15 18.9025L21.265 8.50249C22.4649 7.81365 23.832 7.47015 25.215 7.50999C25.0702 7.90379 24.9974 8.32042 25 8.73999C25 9.18832 25.0775 9.61249 25.2325 10.0125C24.2809 9.96782 23.3363 10.1959 22.51 10.67L6.26 20L22.51 29.33C23.2677 29.7651 24.1262 29.9941 25 29.9941C25.8738 29.9941 26.7323 29.7651 27.49 29.33L36.6525 24.07C36.8342 24.1733 37.0283 24.2633 37.235 24.34L39.1375 24.965C39.3375 25.04 39.5375 25.165 39.6875 25.315M28.735 31.495C27.5984 32.1477 26.3107 32.4912 25 32.4912C23.6893 32.4912 22.4016 32.1477 21.265 31.495L12.5 26.465V35.6925C12.6167 35.7925 12.7608 35.9092 12.9325 36.0425C13.7188 36.6474 14.5552 37.1843 15.4325 37.6475C17.6325 38.8225 20.87 40 25 40C28.3342 40.0154 31.6206 39.2074 34.5675 37.6475C35.6083 37.0962 36.5908 36.4412 37.5 35.6925V26.465L28.735 31.495Z" fill="url(#paint0_linear_1_2082)"/>
</g>
<defs>
<linearGradient id="paint0_linear_1_2082" x1="26.2477" y1="-0.00244141" x2="26.2477" y2="42.5002" gradientUnits="userSpaceOnUse">
<stop stop-color="#52489F"/>
<stop offset="1" stop-color="#15141E"/>
</linearGradient>
<clipPath id="clip0_1_2082">
<rect width="50" height="50" fill="white"/>
</clipPath>
</defs>
</svg>
