<svg width="70" height="70" viewBox="0 0 70 70" fill="none" xmlns="http://www.w3.org/2000/svg">
<path d="M15.2708 52.0625C13.2778 49.7292 11.7339 47.1168 10.6392 44.2254C9.54445 41.334 8.99806 38.2589 9.00001 35C9.00001 27.7083 11.5521 21.5104 16.6563 16.4062C21.7604 11.3021 27.9583 8.75 35.25 8.75H35.8333L31.1667 4.08333L35.25 0L46.9167 11.6667L35.25 23.3333L31.0938 19.1771L35.6875 14.5833H35.25C29.6111 14.5833 24.7986 16.5764 20.8125 20.5625C16.8264 24.5486 14.8333 29.3611 14.8333 35C14.8333 37.4792 15.2339 39.8125 16.035 42C16.8361 44.1875 17.9668 46.1562 19.4271 47.9062L15.2708 52.0625ZM32.3333 51.0417C32.3333 49.9236 31.9571 48.8182 31.2046 47.7254C30.4521 46.6326 29.6131 45.4903 28.6875 44.2983C27.7619 43.1064 26.9239 41.8668 26.1733 40.5796C25.4228 39.2924 25.0456 37.9186 25.0417 36.4583C25.0417 33.6389 26.0382 31.2326 28.0313 29.2396C30.0243 27.2465 32.4306 26.25 35.25 26.25C38.0694 26.25 40.4757 27.2465 42.4688 29.2396C44.4618 31.2326 45.4583 33.6389 45.4583 36.4583C45.4583 37.9167 45.0821 39.2904 44.3296 40.5796C43.5771 41.8687 42.7381 43.1074 41.8125 44.2954C40.8869 45.4835 40.0489 46.6258 39.2983 47.7225C38.5478 48.8192 38.1706 49.9256 38.1667 51.0417H32.3333ZM32.3333 58.3333V53.9583H38.1667V58.3333H32.3333ZM55.2292 52.0625L51.0729 47.9062C52.5312 46.1562 53.6619 44.1875 54.465 42C55.2681 39.8125 55.6686 37.4792 55.6667 35C55.6667 31.7917 54.9988 28.8147 53.6629 26.0692C52.3271 23.3236 50.4915 21.0262 48.1562 19.1771L52.3125 15.0208C55.132 17.4514 57.3681 20.3807 59.0208 23.8087C60.6736 27.2368 61.5 30.9672 61.5 35C61.5 38.2569 60.9536 41.3321 59.8608 44.2254C58.7681 47.1187 57.2242 49.7311 55.2292 52.0625Z" fill="url(#paint0_linear_1_2038)"/>
<defs>
<linearGradient id="paint0_linear_1_2038" x1="35.25" y1="0" x2="35.25" y2="58.3333" gradientUnits="userSpaceOnUse">
<stop stop-color="#362C7E"/>
<stop offset="1" stop-color="#9E91FF"/>
</linearGradient>
</defs>
</svg>
