<svg width="70" height="70" viewBox="0 0 70 70" fill="none" xmlns="http://www.w3.org/2000/svg">
<path d="M39.375 65.625L33.5417 64.4584L35.875 51.9167L25.375 44.0417L21.5833 27.4167L15.1667 32.9584L17.5 44.0417L11.6667 45.2084L8.75 30.9167L21.7292 19.3229C22.8472 18.3507 24.1724 17.9502 25.7046 18.1213C27.2368 18.2924 28.7068 18.6686 30.1146 19.25C31.6701 19.9306 33.2869 20.4167 34.965 20.7084C36.6431 21 38.3318 21.0243 40.0313 20.7813C41.7307 20.5382 43.2989 19.9792 44.7358 19.1042C46.1728 18.2292 47.5456 17.257 48.8542 16.1875L52.5 20.7084C51.0417 21.8264 49.5347 22.8715 47.9792 23.8438C46.4236 24.816 44.7465 25.5695 42.9479 26.1042C41.3438 26.5417 39.7279 26.7731 38.1004 26.7984C36.4729 26.8236 34.8561 26.6409 33.25 26.25L35.2917 35.2917L46.0833 33.25L61.25 44.0417L57.75 48.7084L45.2083 39.9584L34.7083 42L42.5833 47.8334L39.375 65.625ZM23.3333 16.0417C21.7292 16.0417 20.3564 15.471 19.215 14.3296C18.0736 13.1882 17.5019 11.8145 17.5 10.2084C17.4981 8.60224 18.0697 7.22946 19.215 6.09002C20.3603 4.95058 21.7331 4.37891 23.3333 4.37502C24.9336 4.37113 26.3074 4.9428 27.4546 6.09002C28.6018 7.23724 29.1725 8.61002 29.1667 10.2084C29.1608 11.8067 28.5901 13.1804 27.4546 14.3296C26.319 15.4788 24.9453 16.0495 23.3333 16.0417Z" fill="url(#paint0_linear_1_2045)"/>
<defs>
<linearGradient id="paint0_linear_1_2045" x1="35" y1="4.375" x2="35" y2="65.625" gradientUnits="userSpaceOnUse">
<stop stop-color="#362C7E"/>
<stop offset="1" stop-color="#9E91FF"/>
</linearGradient>
</defs>
</svg>
