<svg width="20" height="24" viewBox="0 0 20 24" fill="none" xmlns="http://www.w3.org/2000/svg">
<path d="M10.1014 10.6676V11.1676L10.6014 11.1676C10.9811 11.1676 11.3573 11.2981 11.6781 11.5502C11.9998 11.8029 12.2507 12.1667 12.3877 12.5971C12.3958 12.6225 12.3996 12.6506 12.3982 12.6793C12.3968 12.708 12.3904 12.7348 12.3805 12.7578C12.3706 12.7807 12.3582 12.7979 12.3462 12.8099C12.3344 12.8217 12.3235 12.8279 12.3156 12.831C12.3079 12.834 12.3016 12.8348 12.2962 12.8344C12.2907 12.8341 12.2834 12.8326 12.2744 12.8278C12.2556 12.8178 12.2261 12.7909 12.2093 12.7384L12.2093 12.7381C12.098 12.3886 11.8892 12.0772 11.6031 11.8523C11.316 11.6268 10.966 11.5009 10.6013 11.501L10.1014 11.5012V12.001V14.6679V15.1679H10.6014C11.0871 15.1679 11.5652 15.3819 11.9265 15.7835C12.2894 16.1868 12.501 16.7441 12.501 17.3348C12.501 17.9255 12.2894 18.4828 11.9265 18.8861C11.5652 19.2877 11.0871 19.5017 10.6014 19.5017H10.1014V20.0017V20.1684H9.90158V20.0017V19.5017L9.40159 19.5017C9.02187 19.5017 8.64565 19.3712 8.32485 19.1191C8.00313 18.8663 7.75217 18.5024 7.61519 18.0719L7.61535 18.0719L7.61111 18.0597C7.60237 18.0344 7.59783 18.0061 7.59867 17.9768C7.5995 17.9475 7.60564 17.92 7.61549 17.8962C7.62532 17.8725 7.63794 17.8546 7.65016 17.8422C7.66226 17.83 7.67335 17.8236 7.68137 17.8205C7.6892 17.8174 7.69567 17.8167 7.70115 17.8171C7.70668 17.8174 7.71424 17.8191 7.72363 17.8243L7.96478 17.3863L7.72363 17.8243C7.73322 17.8295 7.74551 17.839 7.75781 17.8549C7.77019 17.8708 7.78165 17.8922 7.78927 17.9185L7.7891 17.9186L7.79323 17.9315C8.01389 18.6228 8.62774 19.1682 9.40158 19.1682H9.90158V18.6682V16.0014V15.5014H9.40158C8.91583 15.5014 8.43779 15.2874 8.07647 14.8858C7.71359 14.4825 7.50195 13.9252 7.50195 13.3345C7.50195 12.7437 7.71359 12.1864 8.07647 11.7831C8.43779 11.3816 8.91583 11.1676 9.40158 11.1676H9.90158V10.6676V10.5009H10.1014V10.6676ZM9.90158 12.001V11.501H9.40158C8.9327 11.501 8.4952 11.7085 8.1815 12.0571C7.86936 12.404 7.70177 12.8642 7.70177 13.3345C7.70177 13.8047 7.86936 14.2649 8.1815 14.6118L8.55318 14.2774L8.1815 14.6118C8.4952 14.9604 8.9327 15.1679 9.40158 15.1679H9.90158V14.6679V12.001ZM10.1014 18.6682V19.1682H10.6014C11.0703 19.1682 11.5078 18.9608 11.8215 18.6121C12.1336 18.2652 12.3012 17.805 12.3012 17.3348C12.3012 16.8646 12.1336 16.4044 11.8215 16.0575C11.5078 15.7088 11.0703 15.5014 10.6014 15.5014H10.1014V16.0014V18.6682Z" stroke="#141520"/>
<path d="M14.2587 6.35702L14.1039 6.41819C11.5166 7.44023 8.46602 7.44027 5.87921 6.41676L5.72372 6.35524L5.63653 6.21255L4.48471 4.32773L3.81383 3.22991L5.04997 3.58661C5.38201 3.68242 5.71692 3.76513 6.05408 3.8346C7.39651 4.10976 8.80116 4.16293 10.0386 3.76572L14.2587 6.35702ZM14.2587 6.35702L14.346 6.21524M14.2587 6.35702L14.346 6.21524M14.346 6.21524L16.1199 3.333L16.6363 2.49393M14.346 6.21524L16.6363 2.49393M16.6363 2.49393L15.6542 2.57252M16.6363 2.49393L15.6542 2.57252M15.6542 2.57252C13.9562 2.70839 11.9544 3.14928 10.0387 3.76568L15.6542 2.57252ZM5.22519 6.48084L5.56753 6.62781C8.33014 7.81384 11.6591 7.81382 14.4216 6.62655L14.7601 6.48106L14.9993 6.76131C16.2371 8.21138 17.2711 9.85761 18.068 11.6447L18.0689 11.6465C18.8992 13.529 19.3681 15.4461 19.2915 17.1321L19.2915 17.1322C19.2166 18.7771 18.6257 20.2311 17.2543 21.3083L17.2543 21.3083C15.8455 22.4146 13.5529 23.1666 10.0244 23.1666C6.49374 23.1666 4.19276 22.4279 2.77256 21.3354L2.77247 21.3353C1.39149 20.2724 0.792884 18.8362 0.709392 17.2099L5.22519 6.48084ZM5.22519 6.48084L4.98645 6.76683M5.22519 6.48084L4.98645 6.76683M4.98645 6.76683C3.80149 8.18628 2.70025 9.92599 1.90952 11.7369L1.90949 11.737M4.98645 6.76683L1.90949 11.737M1.90949 11.737C1.08271 13.6313 0.623107 15.5398 0.709383 17.2097L1.90949 11.737ZM3.73263 2.18706L3.73327 2.18671C5.16062 1.41036 7.49255 0.5 10.025 0.5C12.5037 0.5 14.7727 1.37203 16.1915 2.13751C16.1915 2.13751 16.1915 2.13751 16.1915 2.13751L16.2709 2.18032C16.2715 2.18064 16.2721 2.18095 16.2726 2.18127C16.5042 2.30862 16.7094 2.431 16.8851 2.54345L14.9185 5.73841L14.7247 6.05329L14.969 6.33084C17.4779 9.18141 19.6548 13.5592 19.4913 17.1542C19.4108 18.9257 18.7656 20.4833 17.3299 21.6106C15.8792 22.7497 13.5569 23.5 10.025 23.5C6.49145 23.5 4.16085 22.7628 2.70025 21.6387C1.25583 20.5271 0.601139 18.9897 0.510877 17.2343C0.32756 13.669 2.48736 9.29141 5.02379 6.32547L5.25982 6.04947L5.07036 5.73965L3.11788 2.54683C3.18717 2.50304 3.26083 2.45788 3.33876 2.41175L3.33876 2.41175L3.34053 2.41069C3.46262 2.33773 3.59327 2.2626 3.73263 2.18706ZM4.46707 2.15867L3.33502 2.69268L4.52343 3.08561C5.01959 3.24966 5.53993 3.39297 6.06978 3.50199L6.07028 3.50209C7.40583 3.77548 8.79438 3.82714 10.0108 3.43552L10.0116 3.43527C11.2765 3.02574 12.5628 2.70372 13.8631 2.47101L13.9336 1.50467C12.7918 1.12258 11.4464 0.833444 10.0244 0.833444C7.86043 0.833444 5.85844 1.50234 4.46707 2.15867Z" stroke="#141520"/>
</svg>
