<svg width="10" height="10" viewBox="0 0 10 10" fill="none" xmlns="http://www.w3.org/2000/svg">
<path d="M3.30779 1.02247C3.19062 1.13967 3.1248 1.29862 3.1248 1.46434C3.1248 1.63007 3.19062 1.78901 3.30779 1.90622L6.40154 4.99997L3.30779 8.09372C3.19394 8.2116 3.13094 8.36947 3.13237 8.53335C3.13379 8.69722 3.19952 8.85398 3.3154 8.96986C3.43128 9.08574 3.58804 9.15147 3.75191 9.15289C3.91579 9.15431 4.07366 9.09132 4.19154 8.97747L7.72716 5.44184C7.84433 5.32464 7.91016 5.1657 7.91016 4.99997C7.91016 4.83424 7.84433 4.6753 7.72716 4.55809L4.19154 1.02247C4.07433 0.9053 3.91539 0.839478 3.74966 0.839478C3.58394 0.839478 3.42499 0.9053 3.30779 1.02247Z" fill="#F8F8F8"/>
</svg>
