<svg width="26" height="30" viewBox="0 0 26 30" fill="none" xmlns="http://www.w3.org/2000/svg">
<circle cx="12" cy="14.5" r="11" fill="#0E0E0E"/>
<path d="M10.2294 10.2201C10.0825 10.3611 10 10.5523 10 10.7516C10 10.951 10.0825 11.1422 10.2294 11.2832L14.1085 15.0045L10.2294 18.7259C10.0867 18.8677 10.0077 19.0576 10.0095 19.2547C10.0113 19.4519 10.0937 19.6404 10.239 19.7798C10.3843 19.9192 10.5808 19.9983 10.7863 20C10.9918 20.0017 11.1897 19.9259 11.3375 19.789L15.7706 15.5361C15.9175 15.3951 16 15.2039 16 15.0045C16 14.8052 15.9175 14.614 15.7706 14.473L11.3375 10.2201C11.1906 10.0792 10.9913 10 10.7835 10C10.5757 10 10.3764 10.0792 10.2294 10.2201Z" fill="white"/>
</svg>
