<svg width="30" height="30" viewBox="0 0 30 30" fill="none" xmlns="http://www.w3.org/2000/svg">
<path d="M21.7221 26.142L21.7205 26.1412L15.3493 22.7912L15.0002 22.6077L14.6512 22.7912L8.28092 26.1407C8.28086 26.1407 8.28081 26.1407 8.28075 26.1407C8.19827 26.1839 8.10538 26.2032 8.01253 26.1964C7.91962 26.1897 7.83045 26.1571 7.75507 26.1023C7.67969 26.0476 7.62111 25.9729 7.58592 25.8866C7.5508 25.8005 7.54038 25.7063 7.55583 25.6147C7.55586 25.6145 7.55589 25.6143 7.55592 25.6142L8.77194 18.5205L8.83855 18.1319L8.55624 17.8567L3.40168 12.8321C3.4016 12.8321 3.40153 12.832 3.40145 12.8319C3.33486 12.7668 3.28778 12.6844 3.2655 12.594C3.24319 12.5035 3.24664 12.4085 3.27545 12.3199L2.56867 12.0902L3.27545 12.3199C3.30426 12.2312 3.35728 12.1524 3.42854 12.0922C3.49967 12.0322 3.58615 11.9932 3.67823 11.9797C3.67838 11.9797 3.67853 11.9796 3.67868 11.9796L10.8018 10.9447L11.192 10.888L11.3665 10.5345L14.5381 4.10926C14.5858 4.03489 14.6508 3.97303 14.7277 3.92904C14.8109 3.88147 14.905 3.85645 15.0008 3.85645C15.0967 3.85645 15.1908 3.88147 15.274 3.92904C15.3508 3.97302 15.4159 4.03487 15.4636 4.10922L18.6339 10.5344L18.8084 10.888L19.1986 10.9447L26.3218 11.9796C26.3219 11.9796 26.322 11.9797 26.3222 11.9797C26.4143 11.9932 26.5008 12.0322 26.5719 12.0922C26.6432 12.1524 26.6962 12.2312 26.725 12.3199C26.7538 12.4085 26.7573 12.5035 26.735 12.594C26.7127 12.6844 26.6656 12.7668 26.599 12.8319C26.5989 12.832 26.5989 12.832 26.5988 12.8321L21.4442 17.8567L21.1618 18.132L21.2285 18.5206L22.446 25.6155C22.4583 25.6872 22.4548 25.7608 22.4357 25.8311C22.4166 25.9013 22.3825 25.9665 22.3356 26.0222C22.2887 26.0779 22.2302 26.1226 22.1642 26.1533C22.0992 26.1835 22.0266 26.1998 21.9535 26.2C21.8728 26.1996 21.7934 26.1797 21.7221 26.142Z" stroke="#141520" stroke-width="1.5"/>
</svg>
