<svg width="32" height="24" viewBox="0 0 32 24" fill="none" xmlns="http://www.w3.org/2000/svg">
<path d="M31 6.15553V14.7485C31.0004 15.4257 30.8345 16.0963 30.5116 16.722C30.1888 17.3478 29.7153 17.9163 29.1184 18.3952C28.5215 18.8741 27.8127 19.254 27.0327 19.5131C26.2526 19.7722 25.4165 19.9055 24.5722 19.9053H20.2865L16.7516 22.7406C16.6552 22.8225 16.5389 22.8878 16.41 22.9324C16.281 22.977 16.1421 23 16.0016 23C15.8612 23 15.7222 22.977 15.5933 22.9324C15.4643 22.8878 15.3481 22.8225 15.2517 22.7406L11.7167 19.9053H7.42776C6.58352 19.9053 5.74755 19.7719 4.96759 19.5128C4.18763 19.2536 3.47897 18.8737 2.88207 18.3949C2.28518 17.916 1.81175 17.3475 1.48882 16.7218C1.16589 16.0962 0.999787 15.4257 1 14.7485V6.15553C1 4.7882 1.67721 3.47687 2.88265 2.51002C4.08809 1.54317 5.72301 1 7.42776 1H24.5706C26.2754 1 27.9103 1.54317 29.1157 2.51002C30.3212 3.47687 31 4.7882 31 6.15553Z" stroke="#774FCC" stroke-width="1.5" stroke-linecap="round" stroke-linejoin="round"/>
</svg>
