<svg width="18" height="18" viewBox="0 0 18 18" fill="none" xmlns="http://www.w3.org/2000/svg">
<path d="M15 3.75013V14.2501M11.9513 9.46963C11.7608 10.3779 10.7452 11.0311 8.715 12.3361C6.50625 13.7559 5.40225 14.4661 4.5075 14.1924C4.20286 14.0977 3.92379 13.9348 3.6915 13.7161C3 13.0636 3 11.7091 3 9.00013C3 6.29113 3 4.93663 3.6915 4.28413C3.92401 4.06536 4.20334 3.90248 4.50825 3.80788C5.40225 3.53413 6.50625 4.24438 8.715 5.66413C10.7452 6.96913 11.76 7.62163 11.9513 8.53063C12.0165 8.83963 12.0165 9.16063 11.9513 9.46963Z" stroke="white" stroke-width="1.5" stroke-linecap="round" stroke-linejoin="round"/>
</svg>
