<svg width="28" height="30" viewBox="0 0 28 30" fill="none" xmlns="http://www.w3.org/2000/svg">
<circle cx="14" cy="15" r="6" fill="#5446BC"/>
<path d="M17.4286 15.5045H14.5714V18.9448C14.5714 19.1272 14.5112 19.3022 14.4041 19.4313C14.2969 19.5603 14.1516 19.6328 14 19.6328C13.8484 19.6328 13.7031 19.5603 13.5959 19.4313C13.4888 19.3022 13.4286 19.1272 13.4286 18.9448V15.5045H10.5714C10.4199 15.5045 10.2745 15.432 10.1674 15.3029C10.0602 15.1739 10 14.9989 10 14.8164C10 14.6339 10.0602 14.4589 10.1674 14.3299C10.2745 14.2008 10.4199 14.1283 10.5714 14.1283H13.4286V10.6881C13.4286 10.5056 13.4888 10.3306 13.5959 10.2015C13.7031 10.0725 13.8484 10 14 10C14.1516 10 14.2969 10.0725 14.4041 10.2015C14.5112 10.3306 14.5714 10.5056 14.5714 10.6881V14.1283H17.4286C17.5801 14.1283 17.7255 14.2008 17.8326 14.3299C17.9398 14.4589 18 14.6339 18 14.8164C18 14.9989 17.9398 15.1739 17.8326 15.3029C17.7255 15.432 17.5801 15.5045 17.4286 15.5045Z" fill="white"/>
</svg>
