<svg width="49" height="48" viewBox="0 0 49 48" fill="none" xmlns="http://www.w3.org/2000/svg">
<g clip-path="url(#clip0_1510_1950)">
<g clip-path="url(#clip1_1510_1950)">
<g clip-path="url(#clip2_1510_1950)">
<g clip-path="url(#clip3_1510_1950)">
<mask id="mask0_1510_1950" style="mask-type:alpha" maskUnits="userSpaceOnUse" x="0" y="0" width="49" height="48">
<path d="M48.75 24C48.75 10.7452 38.0048 0 24.75 0C11.4952 0 0.75 10.7452 0.75 24C0.75 37.2548 11.4952 48 24.75 48C38.0048 48 48.75 37.2548 48.75 24Z" fill="#D9D9D9"/>
</mask>
<g mask="url(#mask0_1510_1950)">
<g filter="url(#filter0_i_1510_1950)">
<path d="M48.75 24C48.75 10.7452 38.0048 0 24.75 0C11.4952 0 0.75 10.7452 0.75 24C0.75 37.2548 11.4952 48 24.75 48C38.0048 48 48.75 37.2548 48.75 24Z" fill="url(#paint0_linear_1510_1950)"/>
</g>
<g filter="url(#filter1_d_1510_1950)">
<path d="M23.3862 13.0918V15.2736C24.2861 15.0908 25.2136 15.0908 26.1135 15.2736V13.0918H28.8407V16.4998C29.9823 17.3563 30.8269 18.5489 31.256 19.91H18.2437C18.6728 18.5489 19.5174 17.3563 20.6589 16.4998V13.0918H23.3862Z" fill="white"/>
</g>
<g filter="url(#filter2_d_1510_1950)">
<path d="M13.8408 22.6367V25.364H17.9317V27.404L14.1485 28.484L14.8968 31.1065L18.2481 30.1498C18.6863 31.5304 19.5526 32.7357 20.7216 33.5911C21.8905 34.4465 23.3014 34.9076 24.7499 34.9076C26.1984 34.9076 27.6093 34.4465 28.7783 33.5911C29.9472 32.7357 30.8135 31.5304 31.2517 30.1498L34.603 31.1065L35.3514 28.4851L31.5681 27.404V25.364H35.659V22.6367H26.1135V29.4549H23.3863V22.6367H13.8408Z" fill="white"/>
</g>
</g>
</g>
</g>
</g>
<rect width="48" height="48" transform="translate(0.75)" fill="url(#paint1_linear_1510_1950)"/>
</g>
<defs>
<filter id="filter0_i_1510_1950" x="0.75" y="0" width="48" height="52.3636" filterUnits="userSpaceOnUse" color-interpolation-filters="sRGB">
<feFlood flood-opacity="0" result="BackgroundImageFix"/>
<feBlend mode="normal" in="SourceGraphic" in2="BackgroundImageFix" result="shape"/>
<feColorMatrix in="SourceAlpha" type="matrix" values="0 0 0 0 0 0 0 0 0 0 0 0 0 0 0 0 0 0 127 0" result="hardAlpha"/>
<feOffset dy="4.36364"/>
<feGaussianBlur stdDeviation="2.18182"/>
<feComposite in2="hardAlpha" operator="arithmetic" k2="-1" k3="1"/>
<feColorMatrix type="matrix" values="0 0 0 0 1 0 0 0 0 1 0 0 0 0 1 0 0 0 0.15 0"/>
<feBlend mode="normal" in2="shape" result="effect1_innerShadow_1510_1950"/>
</filter>
<filter id="filter1_d_1510_1950" x="13.88" y="13.0918" width="21.7395" height="15.5456" filterUnits="userSpaceOnUse" color-interpolation-filters="sRGB">
<feFlood flood-opacity="0" result="BackgroundImageFix"/>
<feColorMatrix in="SourceAlpha" type="matrix" values="0 0 0 0 0 0 0 0 0 0 0 0 0 0 0 0 0 0 127 0" result="hardAlpha"/>
<feOffset dy="4.36364"/>
<feGaussianBlur stdDeviation="2.18182"/>
<feComposite in2="hardAlpha" operator="out"/>
<feColorMatrix type="matrix" values="0 0 0 0 0 0 0 0 0 0 0 0 0 0 0 0 0 0 0.25 0"/>
<feBlend mode="normal" in2="BackgroundImageFix" result="effect1_dropShadow_1510_1950"/>
<feBlend mode="normal" in="SourceGraphic" in2="effect1_dropShadow_1510_1950" result="shape"/>
</filter>
<filter id="filter2_d_1510_1950" x="9.47718" y="22.6367" width="30.5456" height="20.9988" filterUnits="userSpaceOnUse" color-interpolation-filters="sRGB">
<feFlood flood-opacity="0" result="BackgroundImageFix"/>
<feColorMatrix in="SourceAlpha" type="matrix" values="0 0 0 0 0 0 0 0 0 0 0 0 0 0 0 0 0 0 127 0" result="hardAlpha"/>
<feOffset dy="4.36364"/>
<feGaussianBlur stdDeviation="2.18182"/>
<feComposite in2="hardAlpha" operator="out"/>
<feColorMatrix type="matrix" values="0 0 0 0 0 0 0 0 0 0 0 0 0 0 0 0 0 0 0.25 0"/>
<feBlend mode="normal" in2="BackgroundImageFix" result="effect1_dropShadow_1510_1950"/>
<feBlend mode="normal" in="SourceGraphic" in2="effect1_dropShadow_1510_1950" result="shape"/>
</filter>
<linearGradient id="paint0_linear_1510_1950" x1="24.75" y1="0" x2="24.75" y2="48" gradientUnits="userSpaceOnUse">
<stop stop-color="#5494FE"/>
<stop offset="1" stop-color="#0251D5"/>
</linearGradient>
<linearGradient id="paint1_linear_1510_1950" x1="24" y1="0" x2="24" y2="48" gradientUnits="userSpaceOnUse">
<stop stop-color="white" stop-opacity="0.24"/>
<stop offset="1" stop-color="white" stop-opacity="0"/>
</linearGradient>
<clipPath id="clip0_1510_1950">
<rect x="0.75" width="48" height="48" rx="24" fill="white"/>
</clipPath>
<clipPath id="clip1_1510_1950">
<rect width="48" height="48" fill="white" transform="translate(0.75)"/>
</clipPath>
<clipPath id="clip2_1510_1950">
<rect width="48" height="48" fill="white" transform="translate(0.75)"/>
</clipPath>
<clipPath id="clip3_1510_1950">
<rect width="48" height="48" fill="white" transform="translate(0.75)"/>
</clipPath>
</defs>
</svg>
