<svg width="49" height="48" viewBox="0 0 49 48" fill="none" xmlns="http://www.w3.org/2000/svg">
<g clip-path="url(#clip0_1510_1893)">
<g clip-path="url(#clip1_1510_1893)">
<g clip-path="url(#clip2_1510_1893)">
<g clip-path="url(#clip3_1510_1893)">
<mask id="mask0_1510_1893" style="mask-type:alpha" maskUnits="userSpaceOnUse" x="0" y="0" width="49" height="48">
<path d="M48.75 24C48.75 10.7452 38.0048 0 24.75 0C11.4952 0 0.75 10.7452 0.75 24C0.75 37.2548 11.4952 48 24.75 48C38.0048 48 48.75 37.2548 48.75 24Z" fill="#D9D9D9"/>
</mask>
<g mask="url(#mask0_1510_1893)">
<g filter="url(#filter0_i_1510_1893)">
<path d="M48.75 24C48.75 10.7452 38.0048 0 24.75 0C11.4952 0 0.75 10.7452 0.75 24C0.75 37.2548 11.4952 48 24.75 48C38.0048 48 48.75 37.2548 48.75 24Z" fill="url(#paint0_linear_1510_1893)"/>
</g>
<g filter="url(#filter1_d_1510_1893)">
<path fill-rule="evenodd" clip-rule="evenodd" d="M16.5684 15.2736C16.5684 14.695 16.7982 14.14 17.2074 13.7308C17.6166 13.3217 18.1715 13.0918 18.7502 13.0918H30.7502C31.3288 13.0918 31.8838 13.3217 32.293 13.7308C32.7021 14.14 32.932 14.695 32.932 15.2736V32.7282C32.932 33.3068 32.7021 33.8618 32.293 34.2709C31.8838 34.6801 31.3288 34.91 30.7502 34.91H18.7502C18.1715 34.91 17.6166 34.6801 17.2074 34.2709C16.7982 33.8618 16.5684 33.3068 16.5684 32.7282V15.2736ZM19.2956 16.91C19.2956 16.6207 19.4106 16.3432 19.6152 16.1386C19.8197 15.934 20.0972 15.8191 20.3865 15.8191H29.1138C29.4031 15.8191 29.6806 15.934 29.8852 16.1386C30.0898 16.3432 30.2047 16.6207 30.2047 16.91V20.1827C30.2047 20.472 30.0898 20.7495 29.8852 20.9541C29.6806 21.1587 29.4031 21.2736 29.1138 21.2736H20.3865C20.0972 21.2736 19.8197 21.1587 19.6152 20.9541C19.4106 20.7495 19.2956 20.472 19.2956 20.1827V16.91ZM20.6593 26.7282C21.0209 26.7282 21.3678 26.5845 21.6235 26.3288C21.8792 26.073 22.0229 25.7262 22.0229 25.3645C22.0229 25.0029 21.8792 24.656 21.6235 24.4003C21.3678 24.1446 21.0209 24.0009 20.6593 24.0009C20.2976 24.0009 19.9508 24.1446 19.695 24.4003C19.4393 24.656 19.2956 25.0029 19.2956 25.3645C19.2956 25.7262 19.4393 26.073 19.695 26.3288C19.9508 26.5845 20.2976 26.7282 20.6593 26.7282ZM22.0229 30.8191C22.0229 31.1807 21.8792 31.5276 21.6235 31.7833C21.3678 32.039 21.0209 32.1827 20.6593 32.1827C20.2976 32.1827 19.9508 32.039 19.695 31.7833C19.4393 31.5276 19.2956 31.1807 19.2956 30.8191C19.2956 30.4574 19.4393 30.1106 19.695 29.8548C19.9508 29.5991 20.2976 29.4554 20.6593 29.4554C21.0209 29.4554 21.3678 29.5991 21.6235 29.8548C21.8792 30.1106 22.0229 30.4574 22.0229 30.8191ZM24.7502 26.7282C25.1118 26.7282 25.4587 26.5845 25.7144 26.3288C25.9701 26.073 26.1138 25.7262 26.1138 25.3645C26.1138 25.0029 25.9701 24.656 25.7144 24.4003C25.4587 24.1446 25.1118 24.0009 24.7502 24.0009C24.3885 24.0009 24.0417 24.1446 23.7859 24.4003C23.5302 24.656 23.3865 25.0029 23.3865 25.3645C23.3865 25.7262 23.5302 26.073 23.7859 26.3288C24.0417 26.5845 24.3885 26.7282 24.7502 26.7282ZM30.2047 25.3645C30.2047 25.7262 30.0611 26.073 29.8053 26.3288C29.5496 26.5845 29.2027 26.7282 28.8411 26.7282C28.4794 26.7282 28.1326 26.5845 27.8768 26.3288C27.6211 26.073 27.4775 25.7262 27.4775 25.3645C27.4775 25.0029 27.6211 24.656 27.8768 24.4003C28.1326 24.1446 28.4794 24.0009 28.8411 24.0009C29.2027 24.0009 29.5496 24.1446 29.8053 24.4003C30.0611 24.656 30.2047 25.0029 30.2047 25.3645ZM24.7502 29.4554C24.3885 29.4554 24.0417 29.5991 23.7859 29.8548C23.5302 30.1106 23.3865 30.4574 23.3865 30.8191C23.3865 31.1807 23.5302 31.5276 23.7859 31.7833C24.0417 32.039 24.3885 32.1827 24.7502 32.1827H28.8411C29.2027 32.1827 29.5496 32.039 29.8053 31.7833C30.0611 31.5276 30.2047 31.1807 30.2047 30.8191C30.2047 30.4574 30.0611 30.1106 29.8053 29.8548C29.5496 29.5991 29.2027 29.4554 28.8411 29.4554H24.7502Z" fill="white"/>
</g>
<path d="M29.1136 15.8184H20.3863C19.7838 15.8184 19.2954 16.3068 19.2954 16.9093V20.182C19.2954 20.7845 19.7838 21.2729 20.3863 21.2729H29.1136C29.7161 21.2729 30.2045 20.7845 30.2045 20.182V16.9093C30.2045 16.3068 29.7161 15.8184 29.1136 15.8184Z" fill="white" fill-opacity="0.5"/>
</g>
</g>
</g>
</g>
<rect width="48" height="48" transform="translate(0.75)" fill="url(#paint1_linear_1510_1893)"/>
</g>
<defs>
<filter id="filter0_i_1510_1893" x="0.75" y="0" width="48" height="52.3636" filterUnits="userSpaceOnUse" color-interpolation-filters="sRGB">
<feFlood flood-opacity="0" result="BackgroundImageFix"/>
<feBlend mode="normal" in="SourceGraphic" in2="BackgroundImageFix" result="shape"/>
<feColorMatrix in="SourceAlpha" type="matrix" values="0 0 0 0 0 0 0 0 0 0 0 0 0 0 0 0 0 0 127 0" result="hardAlpha"/>
<feOffset dy="4.36364"/>
<feGaussianBlur stdDeviation="2.18182"/>
<feComposite in2="hardAlpha" operator="arithmetic" k2="-1" k3="1"/>
<feColorMatrix type="matrix" values="0 0 0 0 0.826025 0 0 0 0 0.826025 0 0 0 0 0.826025 0 0 0 0.15 0"/>
<feBlend mode="normal" in2="shape" result="effect1_innerShadow_1510_1893"/>
</filter>
<filter id="filter1_d_1510_1893" x="12.2047" y="13.0918" width="25.091" height="30.5456" filterUnits="userSpaceOnUse" color-interpolation-filters="sRGB">
<feFlood flood-opacity="0" result="BackgroundImageFix"/>
<feColorMatrix in="SourceAlpha" type="matrix" values="0 0 0 0 0 0 0 0 0 0 0 0 0 0 0 0 0 0 127 0" result="hardAlpha"/>
<feOffset dy="4.36364"/>
<feGaussianBlur stdDeviation="2.18182"/>
<feComposite in2="hardAlpha" operator="out"/>
<feColorMatrix type="matrix" values="0 0 0 0 0 0 0 0 0 0 0 0 0 0 0 0 0 0 0.25 0"/>
<feBlend mode="normal" in2="BackgroundImageFix" result="effect1_dropShadow_1510_1893"/>
<feBlend mode="normal" in="SourceGraphic" in2="effect1_dropShadow_1510_1893" result="shape"/>
</filter>
<linearGradient id="paint0_linear_1510_1893" x1="24.75" y1="0" x2="24.75" y2="48" gradientUnits="userSpaceOnUse">
<stop stop-color="#00AC3C"/>
<stop offset="1" stop-color="#138D3E"/>
</linearGradient>
<linearGradient id="paint1_linear_1510_1893" x1="24" y1="0" x2="24" y2="48" gradientUnits="userSpaceOnUse">
<stop stop-color="white" stop-opacity="0.24"/>
<stop offset="1" stop-color="white" stop-opacity="0"/>
</linearGradient>
<clipPath id="clip0_1510_1893">
<rect x="0.75" width="48" height="48" rx="24" fill="white"/>
</clipPath>
<clipPath id="clip1_1510_1893">
<rect width="48" height="48" fill="white" transform="translate(0.75)"/>
</clipPath>
<clipPath id="clip2_1510_1893">
<rect width="48" height="48" fill="white" transform="translate(0.75)"/>
</clipPath>
<clipPath id="clip3_1510_1893">
<rect width="48" height="48" fill="white" transform="translate(0.75)"/>
</clipPath>
</defs>
</svg>
