<svg width="49" height="48" viewBox="0 0 49 48" fill="none" xmlns="http://www.w3.org/2000/svg">
<g clip-path="url(#clip0_1510_1924)">
<g clip-path="url(#clip1_1510_1924)">
<g clip-path="url(#clip2_1510_1924)">
<g clip-path="url(#clip3_1510_1924)">
<mask id="mask0_1510_1924" style="mask-type:alpha" maskUnits="userSpaceOnUse" x="0" y="0" width="49" height="48">
<path d="M48.75 24C48.75 10.7452 38.0048 0 24.75 0C11.4952 0 0.75 10.7452 0.75 24C0.75 37.2548 11.4952 48 24.75 48C38.0048 48 48.75 37.2548 48.75 24Z" fill="#D9D9D9"/>
</mask>
<g mask="url(#mask0_1510_1924)">
<g filter="url(#filter0_i_1510_1924)">
<path d="M48.75 24C48.75 10.7452 38.0048 0 24.75 0C11.4952 0 0.75 10.7452 0.75 24C0.75 37.2548 11.4952 48 24.75 48C38.0048 48 48.75 37.2548 48.75 24Z" fill="url(#paint0_linear_1510_1924)"/>
</g>
<g filter="url(#filter1_d_1510_1924)">
<path fill-rule="evenodd" clip-rule="evenodd" d="M35.659 24.0009C35.659 30.026 30.775 34.91 24.7499 34.91C18.7248 34.91 13.8408 30.026 13.8408 24.0009C13.8408 17.9758 18.7248 13.0918 24.7499 13.0918C30.775 13.0918 35.659 17.9758 35.659 24.0009ZM26.4539 18.2049C26.4539 18.4287 26.4098 18.6502 26.3242 18.857C26.2386 19.0637 26.1131 19.2516 25.9548 19.4098C25.7966 19.568 25.6087 19.6935 25.402 19.7792C25.1953 19.8648 24.9737 19.9089 24.7499 19.9089C24.5261 19.9089 24.3046 19.8648 24.0978 19.7792C23.8911 19.6935 23.7032 19.568 23.545 19.4098C23.3868 19.2516 23.2613 19.0637 23.1756 18.857C23.09 18.6502 23.0459 18.4287 23.0459 18.2049C23.0459 17.7528 23.2255 17.3193 23.5452 16.9996C23.8648 16.6799 24.2984 16.5003 24.7505 16.5003C25.2025 16.5003 25.6361 16.6799 25.9558 16.9996C26.2754 17.3193 26.4539 17.7528 26.4539 18.2049ZM30.2045 24.0009H26.6852L29.1201 30.8191H26.2226L24.7499 26.6911L23.2761 30.8191H20.3797L22.8146 24.0009H19.2954V21.2736H30.2045V24.0009Z" fill="black"/>
</g>
</g>
</g>
</g>
</g>
<rect width="48" height="48" transform="translate(0.75)" fill="url(#paint1_linear_1510_1924)"/>
</g>
<defs>
<filter id="filter0_i_1510_1924" x="0.75" y="0" width="48" height="52.3636" filterUnits="userSpaceOnUse" color-interpolation-filters="sRGB">
<feFlood flood-opacity="0" result="BackgroundImageFix"/>
<feBlend mode="normal" in="SourceGraphic" in2="BackgroundImageFix" result="shape"/>
<feColorMatrix in="SourceAlpha" type="matrix" values="0 0 0 0 0 0 0 0 0 0 0 0 0 0 0 0 0 0 127 0" result="hardAlpha"/>
<feOffset dy="4.36364"/>
<feGaussianBlur stdDeviation="2.18182"/>
<feComposite in2="hardAlpha" operator="arithmetic" k2="-1" k3="1"/>
<feColorMatrix type="matrix" values="0 0 0 0 0.826025 0 0 0 0 0.826025 0 0 0 0 0.826025 0 0 0 0.15 0"/>
<feBlend mode="normal" in2="shape" result="effect1_innerShadow_1510_1924"/>
</filter>
<filter id="filter1_d_1510_1924" x="9.47718" y="13.0918" width="30.5456" height="30.5456" filterUnits="userSpaceOnUse" color-interpolation-filters="sRGB">
<feFlood flood-opacity="0" result="BackgroundImageFix"/>
<feColorMatrix in="SourceAlpha" type="matrix" values="0 0 0 0 0 0 0 0 0 0 0 0 0 0 0 0 0 0 127 0" result="hardAlpha"/>
<feOffset dy="4.36364"/>
<feGaussianBlur stdDeviation="2.18182"/>
<feComposite in2="hardAlpha" operator="out"/>
<feColorMatrix type="matrix" values="0 0 0 0 0 0 0 0 0 0 0 0 0 0 0 0 0 0 0.25 0"/>
<feBlend mode="normal" in2="BackgroundImageFix" result="effect1_dropShadow_1510_1924"/>
<feBlend mode="normal" in="SourceGraphic" in2="effect1_dropShadow_1510_1924" result="shape"/>
</filter>
<linearGradient id="paint0_linear_1510_1924" x1="24.75" y1="0" x2="24.75" y2="48" gradientUnits="userSpaceOnUse">
<stop stop-color="#FBFBFB"/>
<stop offset="1" stop-color="#D0D0D0"/>
</linearGradient>
<linearGradient id="paint1_linear_1510_1924" x1="24" y1="0" x2="24" y2="48" gradientUnits="userSpaceOnUse">
<stop stop-color="white" stop-opacity="0.24"/>
<stop offset="1" stop-color="white" stop-opacity="0"/>
</linearGradient>
<clipPath id="clip0_1510_1924">
<rect x="0.75" width="48" height="48" rx="24" fill="white"/>
</clipPath>
<clipPath id="clip1_1510_1924">
<rect width="48" height="48" fill="white" transform="translate(0.75)"/>
</clipPath>
<clipPath id="clip2_1510_1924">
<rect width="48" height="48" fill="white" transform="translate(0.75)"/>
</clipPath>
<clipPath id="clip3_1510_1924">
<rect width="48" height="48" fill="white" transform="translate(0.75)"/>
</clipPath>
</defs>
</svg>
