<svg width="44" height="43" viewBox="0 0 44 43" fill="none" xmlns="http://www.w3.org/2000/svg">
<path fill-rule="evenodd" clip-rule="evenodd" d="M28.1841 25.7069C29.7672 23.7501 30.5133 21.2887 30.2706 18.8233C30.0279 16.3579 28.8147 14.0738 26.8777 12.4355C24.9407 10.7973 22.4255 9.92807 19.8438 10.0047C17.262 10.0813 14.8077 11.0979 12.98 12.8478C11.1508 14.599 10.0869 16.9529 10.0051 19.4299C9.92329 21.907 10.8298 24.3207 12.5398 26.1793C14.2498 28.0378 16.6347 29.2013 19.2084 29.4326C21.7821 29.6639 24.351 28.9457 26.3915 27.4242L26.4461 27.479L31.8315 32.6433C31.9495 32.7564 32.0895 32.8461 32.2436 32.9073C32.3978 32.9685 32.5629 33 32.7297 33C32.8966 33 33.0617 32.9685 33.2159 32.9073C33.37 32.8461 33.51 32.7564 33.628 32.6433C33.7459 32.5302 33.8395 32.396 33.9033 32.2482C33.9671 32.1005 34 31.9421 34 31.7822C34 31.6223 33.9671 31.4639 33.9033 31.3162C33.8395 31.1684 33.7459 31.0341 33.628 30.9211L28.2413 25.758C28.2227 25.7404 28.2037 25.7234 28.1841 25.7069ZM25.5485 14.5701C26.2653 15.2462 26.8354 16.0516 27.2259 16.94C27.6163 17.8284 27.8195 18.7821 27.8236 19.7461C27.8277 20.7101 27.6326 21.6654 27.2497 22.5567C26.8668 23.4481 26.3036 24.258 25.5926 24.9397C24.8816 25.6214 24.0368 26.1613 23.107 26.5284C22.1773 26.8955 21.1809 27.0825 20.1753 27.0786C19.1698 27.0746 18.175 26.8799 17.2484 26.5055C16.3218 26.1312 15.4816 25.5847 14.7764 24.8975C13.3671 23.5242 12.581 21.6726 12.5891 19.7461C12.5973 17.8196 13.3992 15.9742 14.8201 14.612C16.241 13.2497 18.1659 12.4809 20.1753 12.4731C22.1848 12.4652 24.1161 13.219 25.5485 14.5701Z" fill="#787878"/>
</svg>
