<svg width="30" height="30" viewBox="0 0 30 30" fill="none" xmlns="http://www.w3.org/2000/svg">
<path d="M15 6.65005H7.61876C7.02779 6.65005 6.44262 6.76662 5.89676 6.99307C5.35091 7.21953 4.85507 7.55143 4.43766 7.96978C4.02025 8.38812 3.68945 8.88469 3.4642 9.43105C3.23896 9.97741 3.1237 10.5628 3.12501 11.1538V18.8563C3.12501 20.0481 3.59846 21.1911 4.4412 22.0339C4.85848 22.4511 5.35387 22.7822 5.89908 23.008C6.44428 23.2338 7.02863 23.3501 7.61876 23.3501H15C16.1918 23.3501 17.3348 22.8766 18.1776 22.0339C19.0203 21.1911 19.4938 20.0481 19.4938 18.8563V11.1551C19.4956 10.5638 19.3807 9.97806 19.1556 9.43134C18.9306 8.88461 18.5998 8.38768 18.1824 7.96904C17.7649 7.5504 17.2689 7.21828 16.7228 6.99173C16.1767 6.76517 15.5912 6.64864 15 6.6488M26.875 11.7976V18.2163C26.875 18.5288 26.7863 18.8363 26.6188 19.1013C26.4494 19.3673 26.2091 19.5807 25.925 19.7176C25.643 19.8587 25.3253 19.9127 25.0125 19.8726C24.7041 19.8358 24.4115 19.7156 24.1663 19.5251L20.135 16.2901C19.9411 16.1309 19.7844 15.9314 19.6758 15.7053C19.5672 15.4792 19.5093 15.2321 19.5063 14.9813C19.5063 14.7313 19.5625 14.4851 19.6725 14.2626C19.7875 14.0526 19.945 13.8688 20.135 13.7226L24.1663 10.5138C24.4116 10.3226 24.7048 10.2024 25.0138 10.1663C25.3263 10.1263 25.6438 10.1801 25.925 10.3201C26.205 10.4538 26.4422 10.6628 26.61 10.9238C26.7778 11.1848 26.8695 11.4873 26.875 11.7976Z" stroke="#141520" stroke-width="1.5" stroke-linecap="round" stroke-linejoin="round"/>
</svg>
