<svg width="74" height="74" viewBox="0 0 74 74" fill="none" xmlns="http://www.w3.org/2000/svg">
<g clip-path="url(#clip0_1510_2193)">
<g clip-path="url(#clip1_1510_2193)">
<g clip-path="url(#clip2_1510_2193)">
<mask id="mask0_1510_2193" style="mask-type:alpha" maskUnits="userSpaceOnUse" x="0" y="0" width="74" height="74">
<path d="M74 37C74 16.5655 57.4345 0 37 0C16.5655 0 0 16.5655 0 37C0 57.4345 16.5655 74 37 74C57.4345 74 74 57.4345 74 37Z" fill="#D9D9D9"/>
</mask>
<g mask="url(#mask0_1510_2193)">
<g filter="url(#filter0_i_1510_2193)">
<path d="M74 37C74 16.5655 57.4345 0 37 0C16.5655 0 0 16.5655 0 37C0 57.4345 16.5655 74 37 74C57.4345 74 74 57.4345 74 37Z" fill="url(#paint0_linear_1510_2193)"/>
</g>
<g filter="url(#filter1_d_1510_2193)">
<path fill-rule="evenodd" clip-rule="evenodd" d="M50.9926 31.2043C51.8732 31.8918 52.5855 32.7712 53.0751 33.7755C53.5647 34.7798 53.8188 35.8825 53.818 36.9998C53.818 39.3544 52.7131 41.4499 50.9926 42.7971C51.1289 43.9058 51.0106 45.0311 50.6466 46.0872C50.2826 47.1434 49.6825 48.1026 48.892 48.892C48.1027 49.6831 47.1432 50.2837 46.0867 50.648C45.0302 51.0123 43.9045 51.1307 42.7954 50.9942C42.1076 51.8746 41.2282 52.5865 40.2239 53.0758C39.2196 53.5652 38.117 53.819 36.9998 53.818C34.6453 53.818 32.5497 52.7131 31.2043 50.9926C30.0952 51.1293 28.9696 51.0111 27.9131 50.6471C26.8566 50.2831 25.8971 49.6828 25.1077 48.892C24.3165 48.1027 23.7159 47.1432 23.3516 46.0867C22.9873 45.0302 22.8689 43.9045 23.0054 42.7954C22.1251 42.1076 21.4131 41.2282 20.9238 40.2239C20.4345 39.2196 20.1807 38.117 20.1816 36.9998C20.1816 34.6453 21.2866 32.5497 23.0071 31.2043C22.8704 30.0952 22.9885 28.9696 23.3525 27.9131C23.7165 26.8566 24.3168 25.8971 25.1077 25.1077C25.8971 24.3166 26.8565 23.7161 27.913 23.3518C28.9694 22.9875 30.0951 22.869 31.2043 23.0054C31.892 22.1251 32.7715 21.4131 33.7757 20.9238C34.78 20.4345 35.8827 20.1807 36.9998 20.1816C39.3544 20.1816 41.4499 21.2866 42.7971 23.0071C43.9058 22.8708 45.0311 22.9891 46.0872 23.3531C47.1434 23.7171 48.1026 24.3172 48.892 25.1077C49.6831 25.897 50.2837 26.8564 50.648 27.9129C51.0123 28.9694 51.1291 30.0951 50.9926 31.2043ZM45.8445 33.2309L42.8694 30.2557L34.8959 38.2292L31.1269 34.462L28.1535 37.4337L34.8959 44.1761L45.8428 33.2275L45.8445 33.2309Z" fill="white"/>
</g>
</g>
</g>
</g>
</g>
<defs>
<filter id="filter0_i_1510_2193" x="0" y="0" width="74" height="80.7273" filterUnits="userSpaceOnUse" color-interpolation-filters="sRGB">
<feFlood flood-opacity="0" result="BackgroundImageFix"/>
<feBlend mode="normal" in="SourceGraphic" in2="BackgroundImageFix" result="shape"/>
<feColorMatrix in="SourceAlpha" type="matrix" values="0 0 0 0 0 0 0 0 0 0 0 0 0 0 0 0 0 0 127 0" result="hardAlpha"/>
<feOffset dy="6.72727"/>
<feGaussianBlur stdDeviation="3.36364"/>
<feComposite in2="hardAlpha" operator="arithmetic" k2="-1" k3="1"/>
<feColorMatrix type="matrix" values="0 0 0 0 1 0 0 0 0 1 0 0 0 0 1 0 0 0 0.15 0"/>
<feBlend mode="normal" in2="shape" result="effect1_innerShadow_1510_2193"/>
</filter>
<filter id="filter1_d_1510_2193" x="13.4544" y="20.1816" width="47.0908" height="47.0913" filterUnits="userSpaceOnUse" color-interpolation-filters="sRGB">
<feFlood flood-opacity="0" result="BackgroundImageFix"/>
<feColorMatrix in="SourceAlpha" type="matrix" values="0 0 0 0 0 0 0 0 0 0 0 0 0 0 0 0 0 0 127 0" result="hardAlpha"/>
<feOffset dy="6.72727"/>
<feGaussianBlur stdDeviation="3.36364"/>
<feComposite in2="hardAlpha" operator="out"/>
<feColorMatrix type="matrix" values="0 0 0 0 0 0 0 0 0 0 0 0 0 0 0 0 0 0 0.25 0"/>
<feBlend mode="normal" in2="BackgroundImageFix" result="effect1_dropShadow_1510_2193"/>
<feBlend mode="normal" in="SourceGraphic" in2="effect1_dropShadow_1510_2193" result="shape"/>
</filter>
<linearGradient id="paint0_linear_1510_2193" x1="37" y1="0" x2="37" y2="74" gradientUnits="userSpaceOnUse">
<stop stop-color="#938DFE"/>
<stop offset="1" stop-color="#413BAC"/>
</linearGradient>
<clipPath id="clip0_1510_2193">
<rect width="74" height="74" rx="37" fill="white"/>
</clipPath>
<clipPath id="clip1_1510_2193">
<rect width="74" height="74" fill="white"/>
</clipPath>
<clipPath id="clip2_1510_2193">
<rect width="74" height="74" fill="white"/>
</clipPath>
</defs>
</svg>
