<svg width="25" height="24" viewBox="0 0 25 24" fill="none" xmlns="http://www.w3.org/2000/svg">
<path d="M1.00957 5.5346L1.0103 5.53381C1.34199 5.17481 1.74149 5 2.24306 5H8.33333H8.83333V4.5V2.4225C8.83333 1.84564 9.00846 1.39502 9.3429 1.0346L9.34363 1.03381C9.67532 0.674812 10.0748 0.5 10.5764 0.5H14.4236C14.9252 0.5 15.3254 0.674849 15.6581 1.0342C15.9918 1.39458 16.1667 1.84533 16.1667 2.4225V4.5V5H16.6667H22.7569C23.2585 5 23.658 5.17481 23.9897 5.53381L23.9904 5.5346C24.3249 5.89502 24.5 6.34564 24.5 6.9225V21.5775C24.5 22.1547 24.3251 22.6054 23.9915 22.9658C23.6587 23.3252 23.2585 23.5 22.7569 23.5H2.24306C1.74112 23.5 1.34151 23.3254 1.00994 22.9673L0.644861 23.3053L1.00994 22.9673C0.675134 22.6057 0.5 22.1544 0.5 21.5775V6.9225C0.5 6.34564 0.675124 5.89502 1.00957 5.5346ZM23.7104 22.5527L23.7122 22.5508C23.9622 22.2794 24.1111 21.9508 24.1111 21.5775V6.9225C24.1111 6.54921 23.9622 6.2206 23.7122 5.94924L23.7104 5.94735C23.4607 5.679 23.1399 5.5 22.7569 5.5H2.24306C1.86014 5.5 1.53932 5.679 1.28956 5.94735L1.28955 5.94734L1.2878 5.94925C1.03784 6.2206 0.888889 6.54921 0.888889 6.9225V21.5775C0.888889 21.9508 1.03784 22.2794 1.28779 22.5508L1.28956 22.5527C1.53932 22.821 1.86014 23 2.24306 23H22.7569C23.1399 23 23.4607 22.821 23.7104 22.5527ZM9.22222 4.5V5H9.72222H15.2778H15.7778V4.5V2.4225C15.7778 2.04921 15.6288 1.7206 15.3789 1.44925L15.3789 1.44924L15.3771 1.44735C15.1273 1.179 14.8065 1 14.4236 1H10.5764C10.1935 1 9.87265 1.179 9.62288 1.44734L9.62113 1.44925C9.37118 1.7206 9.22222 2.04921 9.22222 2.4225V4.5Z" stroke="#774FCC"/>
</svg>
